<svg xmlns="http://www.w3.org/2000/svg" width="1087.006" height="683.978" viewBox="0 0 1087.006 683.978">
  <path id="シェイプ_7" data-name="シェイプ 7" d="M910.474,7892.03c-24.583,12.531-50.023,30.021-83.688,21.541-38.8-9.774-52.773-45.366-84.509-76.468-85.586-83.877-211.965-44.4-248.6-30.156-40.533,15.755-79.988,43.143-112.4,74.313-23.486,22.583-38.247,41.8-66.458,49.543-72.844,19.983-141.321-58.667-169.838-103.393-62.2-97.558-64.478-225.124-41.844-315.562,16.9-67.525,53.454-134.015,116.507-189.554,41.587-36.63,92.195-61.6,149.326-70.006,72.7-10.7,126.129,18.691,208.4,39.85,62.293,16.02,130.116,25.81,158.352,21.541,53.766-8.13,100.617-47.311,167.377-42,69.785,5.548,135.343,55.9,187.068,121.7,60.021,76.36,83.815,160.91,86.15,196.016,7.3,109.849-43.674,211.128-103.38,258.482C1012.877,7895.5,978.614,7857.3,910.474,7892.03Z" transform="translate(-90.001 -7250.016)" fill="#facc2e" opacity="0.8"/>
</svg>
