<svg xmlns="http://www.w3.org/2000/svg" width="1318.081" height="805.553" viewBox="0 0 1318.081 805.553">
  <path id="シェイプ_8" data-name="シェイプ 8" d="M1267,8168c-91.777-35.919-171.14,5.956-260-9-47.481-7.991-72.377-28.12-119.273-39.033C797.712,8099.02,723.391,8108.858,624,8128c-126.387,24.34-226.209,50.427-312,95-89.773,46.642-139.836,94.068-167.468,153.98C128.82,8411.049,126.881,8450.289,120,8499c-11.812,83.616-26.545,138.55-8,197,13.385,42.188,39.788,85.133,82,124,50.924,46.891,140.687,90.647,288.214,93.675C572.074,8915.519,635.971,8893.33,725,8881c141.039-19.535,270.913-8.474,423-29,43.7-5.9,122.711-18.953,189-82,32.546-30.953,57.212-70.205,72-112,26.682-75.406,2.9-132.657-6-230-8.263-90.373-1.849-140.814-44-194C1336.469,8205.569,1304.526,8182.687,1267,8168Z" transform="translate(-103.202 -8108.23)" fill="#facc2e" opacity="0.4"/>
</svg>
