<svg xmlns="http://www.w3.org/2000/svg" width="1218.423" height="701.768" viewBox="0 0 1218.423 701.768">
  <path id="シェイプ_6" data-name="シェイプ 6" d="M1352,6559c-15.925-46.569-49.255-91.248-101-128-88.755-63.04-213.315-74.743-366-34-64.641,17.25-103.342,46.548-166,70-102.805,38.478-173,47.022-236,109-29.622,29.142-46.012,73.873-94,104-63.655,39.963-118.941,17.218-175,62-57.12,45.631-85.719,136.739-58,203,20.664,49.4,70.716,80.585,156,104,141.867,38.95,259.306,25.618,399,14,58.87-4.9,158.479-17.358,241-28,56.924-7.342,141.857-18.966,228-80,44.31-31.395,83.728-72.844,115-123C1364.487,6720.555,1376.724,6631.3,1352,6559Z" transform="translate(-145.311 -6373.196)" fill="#facc2e" opacity="0.302"/>
</svg>
