<svg xmlns="http://www.w3.org/2000/svg" width="1246.995" height="911.638" viewBox="0 0 1246.995 911.638">
  <path id="aboutme_background" d="M200.612,2012.888c-46.751-76.9-94.173-118.317-103.987-187.507a272.2,272.2,0,0,1,31-168.351c34.248-61.957,90.31-103.6,145.982-124,63.594-23.291,114.726-9.692,179.977-22.177,31.127-5.957,54.951-15.77,85.989-22.178,42.227-8.719,98.335-13.943,156.98-15.123,80.37-1.615,134.933,7.453,164.979,31.252,37.251,29.506,50.165,69.369,62.992,110.891,27.628,89.426,46.389,146.082,85.989,168.351,53.954,30.34,105.731-9.872,166.979,10.082,92.715,30.2,135.417,151.19,147.981,196.578,25.828,93.306,18.085,161.638-13,210.692-45.786,72.258-129.647,90.529-179.978,100.81-104.072,21.261-235.546,43.626-296.963,50.406-201.91,22.286-319.6,63.067-377.953-6.049-38.626-45.754-12.285-96.436-60.992-151.214-35.676-40.123-77.664-41.08-116.985-72.583C243.835,2094.113,229.274,2060.035,200.612,2012.888Z" transform="translate(-94.019 -1473.374)" fill="#facc2e" opacity="0.502"/>
</svg>
