<?xml version="1.0" encoding="utf-8"?>
<!-- Generator: Adobe Illustrator 26.5.0, SVG Export Plug-In . SVG Version: 6.00 Build 0)  -->
<svg version="1.1" id="レイヤー_1" xmlns="http://www.w3.org/2000/svg" xmlns:xlink="http://www.w3.org/1999/xlink" x="0px"
	 y="0px" viewBox="0 0 186.5 424.1" style="enable-background:new 0 0 186.5 424.1;" xml:space="preserve">
<style type="text/css">
	.st0{fill:#27B1BE;stroke:#333333;stroke-width:3;stroke-linecap:square;}
</style>
<path id="シェイプ_26" class="st0" d="M192.7,3.6c-5.2-0.5-15.1,0.4-22.2,7.7c-4.4,4.6-8.4,14-7.4,29.9
	c0.7,10.9,4.3,17.6,0.9,24.1c-3.8,7.2-12.5,8.6-22.2,10.6c-19.3,4-31.8,10.8-44.4,6.7C89.3,80,84,73.6,73.5,72
	c-15.8-2.3-31.6,8-42.5,18.3c-7.2,6.8-14.6,16.7-20.3,31.8c-6.6,17.4-8,33-5.5,46.3c2.8,15.1,10.2,21.7,13.9,35.7
	c2.2,8.2,1.8,32.3-4.6,56.9C8.9,282,2.5,294.8,7.9,311.1c2.2,6.6,8.3,16.8,20.3,26c11.4,8.8,27.6,16,51.8,18.3
	c8,0.8,21.2,1.6,34.2,8.7c11.2,6.1,15.5,12.6,15.7,17.3c0.3,5.7-3.3,10.3-5.5,12.5c-4.9,4.7-12.5,3.9-13.9,7.7
	c-1.6,4.7,6.3,13.9,15.7,16.4c4.5,1.2,11.9,1,21.3-4.8c9-5.6,15.5-14.4,19.4-24.1c2.9-7.3,3-23.9,11.1-31.8c5.3-5.1,11.5-6,14.8-6.7
	c32.7-7.4,55.8-69.3,61.9-88.7C289.3,152.4,239.5,7.9,192.7,3.6z"/>
</svg>
